<?xml version="1.0" encoding="UTF-8"?>
<svg version="1.1" xmlns="http://www.w3.org/2000/svg" viewBox="0 0 500 500" width="1200" height="1200">

<circle cx="250" cy="250" r="250" fill="#9370DB"/>

<path d="M0 0 C1.24925262 -0.00307663 2.49850525 -0.00615326 3.78561401 -0.00932312 C5.13979269 -0.00241664 6.49396957 0.00485097 7.84814453 0.01245117 C9.25855466 0.01364614 10.6689656 0.01409547 12.07937622 0.01383972 C15.03652942 0.01540121 17.99356102 0.02365553 20.95068359 0.03710938 C24.69311802 0.05394222 28.43541721 0.05792772 32.17788506 0.05716419 C35.09517651 0.05743997 38.01243989 0.06298784 40.92972183 0.07016563 C42.30645664 0.07329415 43.68319455 0.07530566 45.05993271 0.07605934 C73.30182675 0.10840302 73.30182675 0.10840302 84.54345703 3.68041992 C85.37192139 3.93774902 86.20038574 4.19507813 87.05395508 4.46020508 C99.34013091 8.53567666 110.81607935 14.7185424 118.60595703 25.24291992 C119.24791016 25.85522461 119.88986328 26.4675293 120.55126953 27.09838867 C131.29866505 38.31572735 133.11971171 53.80060344 133.02587891 68.57275391 C132.62325368 82.85175436 126.32194533 96.79800303 115.97314453 106.82495117 C111.82817925 110.24291992 111.82817925 110.24291992 109.60595703 110.24291992 C109.60595703 110.90291992 109.60595703 111.56291992 109.60595703 112.24291992 C107.41845703 113.75073242 107.41845703 113.75073242 104.60595703 115.36791992 C103.67783203 115.90674805 102.74970703 116.44557617 101.79345703 117.00073242 C101.07158203 117.4106543 100.34970703 117.82057617 99.60595703 118.24291992 C100.72873047 118.81139648 101.85150391 119.37987305 103.00830078 119.96557617 C119.09902821 128.21939693 133.56960361 137.64352903 139.4284668 155.79052734 C141.60352969 163.59220081 142.1131685 170.98216779 142.04345703 179.05541992 C142.03209717 180.90200195 142.03209717 180.90200195 142.02050781 182.78588867 C141.68606634 201.26072874 135.90133649 216.34379531 123.60595703 230.24291992 C123.09806641 230.85651367 122.59017578 231.47010742 122.06689453 232.10229492 C110.46208292 245.07587918 89.59995492 252.87593014 72.50820923 254.43416977 C70.40320599 254.51288782 68.30616214 254.53609801 66.19970703 254.53344727 C65.41305664 254.54016449 64.62640625 254.54688171 63.81591797 254.55380249 C61.24586472 254.57261877 58.67607463 254.57669767 56.10595703 254.57885742 C54.30191953 254.58529448 52.49788304 254.5920235 50.69384766 254.59902954 C46.92494283 254.6109597 43.15612939 254.61471454 39.38720703 254.61352539 C34.57564426 254.61332192 29.76467026 254.64067173 24.95324707 254.67506981 C21.23158104 254.69738036 17.51005611 254.70136173 13.78833008 254.70030594 C12.01503462 254.7026538 10.24173478 254.71143102 8.46850586 254.72697067 C-11.19130216 254.88320227 -11.19130216 254.88320227 -18.70654297 248.18041992 C-24.47110923 238.14580458 -25.55130906 227.97212742 -25.52775574 216.62841797 C-25.53002129 215.81036777 -25.53228685 214.99231756 -25.53462106 214.14947796 C-25.54090283 211.43451678 -25.54013549 208.71960627 -25.53930664 206.00463867 C-25.54230168 204.04749488 -25.54570501 202.09035167 -25.54948425 200.13320923 C-25.55829115 194.835783 -25.56066091 189.53837294 -25.56130004 184.24094009 C-25.56201217 180.92831505 -25.56414953 177.61569409 -25.56679726 174.30307007 C-25.57603818 162.73842102 -25.58013352 151.17378348 -25.5793457 139.60913086 C-25.57874454 128.84081944 -25.58930714 118.07255806 -25.60508937 107.3042593 C-25.61817309 98.04626194 -25.62352928 88.78828092 -25.62289029 79.53027439 C-25.62263565 74.00636088 -25.62546881 68.48249192 -25.63606834 62.95858765 C-25.64576386 57.7645429 -25.64581851 52.57058517 -25.63855171 47.37653732 C-25.63750784 45.47426603 -25.63985703 43.57198927 -25.64591217 41.66972733 C-25.65366272 39.06552404 -25.64896723 36.46161902 -25.64128113 33.85742188 C-25.64642469 33.11158687 -25.65156825 32.36575186 -25.65686768 31.59731579 C-25.59935785 22.73037598 -23.94177372 13.23325221 -17.78857422 6.48120117 C-12.42574406 1.5919101 -7.28149461 -0.00949221 0 0 Z " fill="#eee2fd" transform="translate(298.39404296875,139.757080078125)"/>
<path d="M0 0 C1.77304091 -0.00067578 3.54608172 -0.00164807 5.31912231 -0.00289917 C9.00507504 -0.00436096 12.69100328 -0.00226948 16.37695312 0.00244141 C21.08050399 0.00816311 25.78399808 0.00483463 30.48754692 -0.00113106 C34.13711978 -0.00475645 37.78667932 -0.00358943 41.43625259 -0.00100327 C43.17045219 -0.00034078 44.90465303 -0.00113846 46.63885117 -0.00348282 C72.4835359 -0.03078903 72.4835359 -0.03078903 81.1328125 7.1328125 C90.93683436 17.98726527 90.58459726 35.33147229 90.53686523 49.09155273 C90.54258803 50.61311335 90.54955954 52.13466968 90.55766296 53.65621948 C90.57539784 57.7369253 90.57446381 61.81741383 90.56872058 65.89814639 C90.56560027 69.32711509 90.5717523 72.75604373 90.57775933 76.18500668 C90.59173801 84.28458682 90.5902988 92.38406134 90.57885742 100.48364258 C90.56737943 108.79187255 90.58146176 117.09977957 90.6082539 125.40796703 C90.63052412 132.58728735 90.63702306 139.76650714 90.63117748 146.94585949 C90.62783402 151.21354711 90.63004669 155.48102784 90.64742851 159.74868584 C90.66307814 163.76517042 90.65874649 167.78118226 90.64012337 171.79764938 C90.63648683 173.25633604 90.63939818 174.71505918 90.65000916 176.17371178 C90.79514874 197.8068269 84.62491326 219.14689825 69.6328125 235.2578125 C49.98033873 253.79233118 24.09340943 256.90925737 -1.84521484 256.26904297 C-13.84987153 255.72787328 -24.91194998 253.10731233 -35.8671875 248.1328125 C-36.89457031 247.69066406 -37.92195313 247.24851562 -38.98046875 246.79296875 C-55.48877715 239.22054266 -67.32132973 224.61414077 -74.15771484 208.04785156 C-76.30404322 202.25438984 -77.56694184 196.16061803 -78.8671875 190.1328125 C-79.063125 189.34519531 -79.2590625 188.55757812 -79.4609375 187.74609375 C-80.07835858 183.77441391 -80.05156431 179.83360744 -80.0546875 175.8203125 C-80.06693359 175.00369141 -80.07917969 174.18707031 -80.09179688 173.34570312 C-80.10724507 166.88320798 -79.80442492 160.71579573 -75.8046875 155.3828125 C-67.76668559 149.22604508 -60.31433208 148.50149706 -50.3671875 148.6328125 C-49.19542969 148.61734375 -48.02367187 148.601875 -46.81640625 148.5859375 C-39.58765255 148.61838982 -34.16204475 149.54128886 -27.8671875 153.1328125 C-26.1965625 154.0609375 -26.1965625 154.0609375 -24.4921875 155.0078125 C-20.35827822 158.35431049 -19.02182903 161.68156122 -18.4609375 166.9453125 C-18.42020858 168.34090141 -18.38934635 169.73680525 -18.3671875 171.1328125 C-17.97661853 181.23369617 -17.48889375 192.01588225 -10.8671875 200.1328125 C-10.5784375 200.8753125 -10.2896875 201.6178125 -9.9921875 202.3828125 C-8.24972757 205.09330573 -5.8846959 205.28791015 -2.8671875 206.1328125 C-2.28066406 206.473125 -1.69414062 206.8134375 -1.08984375 207.1640625 C5.13467101 209.87703203 13.97532339 209.01013988 20.1953125 206.5703125 C26.14015207 203.45424417 28.98609228 198.30927345 31.1328125 192.1328125 C31.44028233 189.28326482 31.44028233 189.28326482 31.4112854 186.21659851 C31.42244888 185.03174362 31.43361237 183.84688873 31.44511414 182.62612915 C31.44727432 181.33500214 31.44943451 180.04387512 31.45166016 178.71362305 C31.46096319 177.33358678 31.47113243 175.95355613 31.48210144 174.5735321 C31.50937329 170.8342899 31.52454246 167.09508531 31.53752947 163.35576987 C31.55317235 159.4452914 31.57995888 155.53488961 31.6055603 151.62446594 C31.65232761 144.22272416 31.68908162 136.82096791 31.72223318 129.41915399 C31.76046904 120.99109779 31.80987537 112.56311865 31.86021733 104.13512743 C31.96350673 86.8010782 32.05277685 69.46698437 32.1328125 52.1328125 C31.50657486 52.13725372 30.88033722 52.14169495 30.23512268 52.14627075 C23.63097449 52.19102033 17.02687036 52.2208896 10.42260742 52.24267578 C7.9681625 52.2526434 5.51372917 52.26622235 3.05932617 52.28369141 C-39.87792503 52.58131965 -39.87792503 52.58131965 -48.88671875 44.26953125 C-55.27284927 37.3631457 -56.60520482 31.28703942 -56.3046875 21.94140625 C-55.55292526 15.3970475 -52.92552877 10.78840924 -47.96875 6.484375 C-34.87395153 -2.46977573 -15.19186916 -0.02070494 0 0 Z " fill="#eee2fd" transform="translate(134.8671875,139.8671875)"/>
<path d="M0 0 C36.84615385 0 36.84615385 0 48 9.0625 C56.13779309 18.20440384 57.97075596 27.84165551 57.4140625 39.71484375 C56.67440719 49.13408549 53.23006355 56.79651748 46 63 C31.76135813 72.22619928 17.72768308 69 0 69 C0 46.23 0 23.46 0 0 Z " fill="#9370DB" transform="translate(328,283)"/>
<path d="M0 0 C32.44810127 0 32.44810127 0 44 9 C51.64264132 17.03457164 51.45301733 27.44769718 51.28515625 37.9140625 C50.96372622 45.05013226 47.60894363 49.6870259 43 55 C30.27732323 65.55798377 16.55973887 62 0 62 C0 41.54 0 21.08 0 0 Z " fill="#9370DB" transform="translate(328,183)"/>
<path d="M0 0 C0.90741943 0.06566162 1.81483887 0.13132324 2.74975586 0.19897461 C16.67535629 1.14183216 30.61026865 1.33297629 44.5625 1.5625 C47.03841706 1.60580057 49.5143286 1.64941805 51.99023438 1.69335938 C57.9934309 1.79922224 63.99668347 1.90118931 70 2 C70.09353109 20.11552533 70.16402212 38.2309878 70.20724869 56.34670258 C70.22785496 64.75856102 70.25593839 73.17026924 70.30175781 81.58203125 C70.34168503 88.91558132 70.36744688 96.24902257 70.37635398 103.58267832 C70.38155882 107.46416607 70.39375127 111.34534256 70.42292023 115.22673035 C70.45018264 118.88424767 70.45842339 122.54132717 70.45243073 126.19893646 C70.45404628 128.1727 70.47551226 130.14641645 70.49768066 132.12005615 C70.46464587 139.26319587 69.81492035 143.91715766 66 150 C65.443125 150.9075 64.88625 151.815 64.3125 152.75 C58.96194121 157.95594909 53.29816578 159.27121189 45.9375 159.5 C39.8949555 159.34288075 36.0639509 158.24092857 31 155 C34.04917673 154.05415993 34.96763417 153.99048064 38.1875 154.9375 C45.16411189 156.88180168 51.91383171 156.03071539 59 155 C59 154.34 59 153.68 59 153 C59.99 153 60.98 153 62 153 C62.103125 152.21625 62.20625 151.4325 62.3125 150.625 C63 148 63 148 66 146 C69.90574964 132.78451204 68.26003333 117.43262656 68.20278788 103.83409619 C68.19014083 100.31477472 68.18909916 96.79544848 68.18673706 93.27610779 C68.1805628 86.63608128 68.16420791 79.99612196 68.14403808 73.35612482 C68.12155155 65.78640209 68.11065384 58.21667586 68.10064721 50.64692795 C68.07983725 35.09791329 68.04474166 19.54896537 68 4 C67.31032639 3.99191315 66.62065277 3.98382629 65.91007996 3.97549438 C59.36467494 3.89708696 52.81945697 3.80966331 46.27430248 3.71247292 C42.91052951 3.66283187 39.54678315 3.61650338 36.18286133 3.578125 C32.30272246 3.53212965 28.42291128 3.47419289 24.54296875 3.4140625 C23.35293747 3.40251129 22.16290619 3.39096008 20.93681335 3.37905884 C13.76601211 3.25411356 7.00831852 2.53571006 0 1 C0 0.67 0 0.34 0 0 Z " fill="#9370DB" transform="translate(97,190)"/>

<path d="M0 0 C1.92138794 -0.00386719 1.92138794 -0.00386719 3.8815918 -0.0078125 C14.04900649 0.2201303 20.9704248 2.08604266 28.75 8.75 C28.75 9.41 28.75 10.07 28.75 10.75 C29.41 10.75 30.07 10.75 30.75 10.75 C30.75 12.4 30.75 14.05 30.75 15.75 C30.316875 15.04875 29.88375 14.3475 29.4375 13.625 C24.70080357 8.55783637 17.12837401 4.039575 10.07373047 3.57299805 C6.59073145 3.50643548 3.10853074 3.46505958 -0.375 3.4375 C-1.57382813 3.40849609 -2.77265625 3.37949219 -4.0078125 3.34960938 C-10.63375057 3.30238504 -15.68483926 3.72742434 -21.57373047 6.88598633 C-23.25 7.75 -23.25 7.75 -25.25 7.75 C-24.25 4.75 -24.25 4.75 -22.46582031 3.60839844 C-14.99074642 0.48079084 -8.05094238 -0.01669995 0 0 Z " fill="#9370DB" transform="translate(85.25,286.25)"/>
</svg>
